<?xml version="1.0" encoding="UTF-8" standalone="no"?>
<svg
   viewBox="0 0 275.60843 80"
   height="80"
   width="275.60843"
   xml:space="preserve"
   id="svg2"
   version="1.1"
   xmlns="http://www.w3.org/2000/svg"
   xmlns:svg="http://www.w3.org/2000/svg"
   xmlns:rdf="http://www.w3.org/1999/02/22-rdf-syntax-ns#"
   xmlns:cc="http://creativecommons.org/ns#"
   xmlns:dc="http://purl.org/dc/elements/1.1/"><metadata
   id="metadata8"><rdf:RDF><cc:Work
       rdf:about=""><dc:format>image/svg+xml</dc:format><dc:type
         rdf:resource="http://purl.org/dc/dcmitype/StillImage" /></cc:Work></rdf:RDF></metadata>
    <defs
   id="defs6">
        
        
    </defs>
    <a
   href="https://cgi.br"
   target="_blank"
   id="a10"
   transform="scale(0.57531884)">
            <g
   id="g448">
                <rect
   style="fill:transparent;stroke-width:6.08026"
   id="rect248-3"
   width="215.05736"
   height="139.05333"
   x="263.996"
   y="0" />
        <path
   id="path14"
   style="fill:#88c326;fill-opacity:1;fill-rule:nonzero;stroke:none;stroke-width:0.133333"
   d="m 466.91199,28.045999 v -4.923333 h -13.872 v 92.501464 h 13.872 V 40.346532 c 2.02266,-2.481733 4.09733,-3.875999 6.23333,-4.196799 2.33067,-0.328134 4.30267,0.2104 5.904,1.606666 V 22.2544 c -5,0 -9.04667,1.933333 -12.13733,5.791599 z M 439.38399,24.996 c -2.35067,-1.6172 -5.288,-2.425467 -8.82,-2.425467 -5.02133,0 -9.02533,1.876 -12.01333,5.613466 V 0.00400014 H 404.51332 V 80.112131 c -0.112,2.3152 -1.02666,4.3792 -3.59333,5.095334 -7.45467,1.137066 -13.17333,7.587999 -13.17333,15.363595 0,8.602 6.972,15.56867 15.56533,15.56867 3.83067,0 7.35333,-1.40413 10.07333,-3.71667 v 0.01 c 0.052,-0.0385 0.092,-0.0819 0.144,-0.12813 0.39067,-0.3412 0.74934,-0.688 1.09867,-1.06 0.544,-0.4572 1.16,-0.81667 1.9,-0.81667 0.944,0 1.632,0.15947 2.40267,0.84694 3.03866,3.43026 6.93066,5.14693 11.63333,5.14693 0.19467,0 0.38,-0.0204 0.57467,-0.0303 3.32666,-0.0593 6.14,-0.85786 8.4,-2.40306 2.35066,-1.61467 3.984,-3.41934 4.88666,-5.41414 0.87334,-1.8916 1.31467,-5.09533 1.36534,-9.569729 0,-0.207333 0.0107,-0.418267 0.0107,-0.6464 V 40.637199 c 0,-4.836533 -0.48266,-8.266133 -1.448,-10.247466 -0.95466,-1.9848 -2.61866,-3.779067 -4.96933,-5.393733 z m -7.61867,66.559465 v 5.344799 c 0,1.735334 -0.57466,3.131736 -1.704,4.227596 -1.46933,1.39427 -3.328,1.94627 -5.60666,1.61507 -1.992,-0.3104 -4.32267,-1.7532 -5.904,-4.395332 v 0 -57.839066 c 1.868,-2.482266 3.82933,-3.889066 5.904,-4.217733 2.27866,-0.328666 4.13733,0.210934 5.60666,1.625067 1.12934,1.075467 1.704,2.482266 1.704,4.2072 v 49.432399 0" />
                <path
   id="path16"
   style="fill:#4e5960;fill-opacity:1;fill-rule:nonzero;stroke:none;stroke-width:0.133333"
   d="m 305.57199,95.686131 c 0,5.749999 -1.992,10.668799 -5.976,14.721869 -3.99466,4.0656 -8.85066,6.10413 -14.57066,6.10413 -5.70934,0 -10.63734,-2.01507 -14.796,-6.05307 -4.148,-4.01453 -6.23334,-8.88173 -6.23334,-14.575062 V 43.516932 c 0,-5.701066 2.03334,-10.558399 6.08934,-14.585999 4.06666,-4.024533 8.964,-6.0396 14.704,-6.0396 5.74,0 10.63733,2.015067 14.69333,6.0396 4.056,4.0276 6.08933,8.884933 6.08933,14.585999 v 32.7088 h -13.964 v -33.2068 c 0,-1.835333 -0.668,-3.4292 -2.00266,-4.774399 -1.33467,-1.3448 -2.916,-2.025067 -4.73467,-2.025067 -1.92933,0 -3.56267,0.680267 -4.908,2.025067 -1.33467,1.345199 -2.00133,2.939066 -2.00133,4.774399 v 53.354666 c 0,1.843333 0.66666,3.4276 2.00133,4.785462 1.34533,1.34534 2.97867,2.02294 4.908,2.02294 1.81867,0 3.4,-0.6984 4.73467,-2.08174 1.33466,-1.396929 2.00266,-3.049996 2.00266,-4.946929 v -5.344266 h 13.964 v 4.877066" />
                <path
   id="path18"
   style="fill:#4e5960;fill-opacity:1;fill-rule:nonzero;stroke:none;stroke-width:0.133333"
   d="m 341.76666,23.212133 v 5.0928 c -3.112,-3.768267 -7.17734,-5.644267 -12.20933,-5.644267 -3.532,0 -6.47867,0.797867 -8.83067,2.415067 -2.35067,1.604133 -3.984,3.409333 -4.89733,5.401066 -0.904,1.9844 -1.35467,5.3828 -1.36534,10.168133 v 0.01253 57.767732 c 0,4.846936 0.452,8.265066 1.36534,10.259866 0.91333,1.99227 2.536,3.79947 4.89733,5.41414 2.352,1.60413 5.29867,2.41293 8.82133,2.41293 5.04133,0 9.10667,-1.88693 12.21867,-5.6552 v 9.462 c 0,1.99427 -0.688,3.648 -2.00267,4.98547 -1.356,1.32393 -2.988,1.99424 -4.908,1.99424 -1.93066,0 -3.532,-0.68802 -4.816,-2.04584 -1.29333,-1.376 -1.93066,-2.98014 -1.93066,-4.85414 h -13.64534 c 0,5.52446 1.96134,9.99842 5.904,13.46664 3.932,3.44948 8.82,5.18803 14.64133,5.18803 5.82267,0 10.74134,-1.71719 14.72534,-5.13751 3.99333,-3.42916 5.98533,-7.95468 5.98533,-13.59689 V 23.212133 Z m 0,75.346398 c -2.03334,2.480269 -4.128,3.886399 -6.264,4.202129 -2.36133,0.3312 -4.292,-0.20786 -5.78,-1.61413 -1.068,-1.08387 -1.61333,-2.480132 -1.61333,-4.205199 V 47.572666 42.230932 c 0,-1.715066 0.668,-3.201066 2.01333,-4.456266 1.33467,-1.227067 3.17333,-1.6916 5.544,-1.363067 2.12533,0.315734 4.15866,1.7224 6.1,4.2048 z m -0.0413,-70.232798 0.0413,-0.0104 v 0 l -0.0413,0.0104 v 0" />
                <path
   id="path20"
   style="fill:#4e5960;fill-opacity:1;fill-rule:nonzero;stroke:none;stroke-width:0.133333"
   d="m 379.09066,13.691333 h -13.964 V 0.04266681 h 13.964 z m 0,102.181327 h -13.964 V 23.212133 h 13.964 v 92.660527 0" />
                <path
   id="path22"
   style="fill:#f7ed0a;fill-opacity:1;fill-rule:nonzero;stroke:none;stroke-width:0.133333"
   d="m 411.29066,100.57106 c 0,4.41507 -3.57334,7.99627 -7.97867,7.99627 -4.42533,0 -7.99867,-3.5812 -7.99867,-7.99627 0,-4.404662 3.57334,-7.985996 7.99867,-7.985996 4.40533,0 7.97867,3.581334 7.97867,7.985996" />
        </g>
        </a>
    <a
   href="https://nic.br"
   target="_blank"
   id="a18"
   transform="scale(0.57531884)">
            <g
   id="g441">
                <rect
   style="fill:transparent;stroke-width:5.5931"
   id="rect248"
   width="216.00266"
   height="117.14866"
   x="0" 
   y="0" />
            <path
   id="path24"
   style="fill:#88c326;fill-opacity:1;fill-rule:nonzero;stroke:none;stroke-width:0.133333"
   d="M 203.78399,28.225733 V 23.258 h -13.96533 v 93.08226 h 13.96533 V 40.598666 c 2.04267,-2.482267 4.128,-3.899467 6.26267,-4.2308 2.352,-0.328533 4.35333,0.223467 5.956,1.6276 v -15.602 c -5.032,0 -9.108,1.942667 -12.21867,5.832267 z m -27.69333,-3.070267 c -2.372,-1.6276 -5.32933,-2.443866 -8.872,-2.443866 -5.05066,0 -9.08666,1.883866 -12.096,5.642266 V 0.00400014 h -14.128 V 80.612665 c -0.10266,2.331333 -1.02666,4.4152 -3.604,5.1344 -7.51613,1.144266 -13.25573,7.633866 -13.25573,15.460935 0,8.64533 6.99213,15.6636 15.64773,15.6636 3.872,0 7.404,-1.41934 10.14534,-3.72974 v 0 c 0.0507,-0.0412 0.092,-0.0797 0.13333,-0.1312 0.39067,-0.33906 0.76,-0.70573 1.11867,-1.07813 0.54533,-0.43653 1.16,-0.80573 1.91066,-0.80573 0.944,0 1.632,0.162 2.41334,0.8572 3.06933,3.4396 6.96133,5.16466 11.71466,5.16466 0.18534,0 0.36934,-0.01 0.56534,-0.0308 3.348,-0.0593 6.192,-0.8572 8.46,-2.4124 2.36266,-1.6224 4.016,-3.44013 4.91866,-5.45266 0.87334,-1.8948 1.32534,-5.11347 1.36534,-9.631736 0.0107,-0.207333 0.0213,-0.418266 0.0213,-0.643733 V 40.883599 c 0,-4.862 -0.49333,-8.3016 -1.468,-10.3068 -0.96533,-1.992266 -2.62933,-3.8068 -4.99067,-5.421333 z M 168.42,92.136131 v 5.3828 c 0,1.735467 -0.57467,3.149469 -1.73467,4.237999 -1.45867,1.40627 -3.316,1.96093 -5.62667,1.6256 -2.00266,-0.32133 -4.33333,-1.75627 -5.936,-4.418799 v 0 -58.208265 c 1.86934,-2.5032 3.86134,-3.907333 5.936,-4.236 2.31067,-0.328667 4.168,0.207867 5.62667,1.625067 1.16,1.096266 1.73467,2.512933 1.73467,4.248399 v 49.743199 0" />
                <path
   id="path26"
   style="fill:#f7ed0a;fill-opacity:1;fill-rule:nonzero;stroke:none;stroke-width:0.133333"
   d="m 147.82266,101.208 c 0,4.44586 -3.59333,8.0344 -8.04,8.0344 -4.436,0 -8.03946,-3.58854 -8.03946,-8.0344 0,-4.443736 3.60346,-8.034936 8.03946,-8.034936 4.44667,0 8.04,3.5912 8.04,8.034936" />
                <path
   id="path28"
   style="fill:#1b1819;fill-opacity:1;fill-rule:nonzero;stroke:none;stroke-width:0.133333"
   d="M 41.148932,116.29133 H 27.225466 V 42.749732 c 0,-1.7256 -0.585333,-3.1292 -1.7328,-4.207333 -1.457733,-1.396933 -3.334267,-1.9328 -5.623866,-1.615066 -2.090134,0.328666 -4.074,1.7276 -5.940134,4.207199 V 116.29133 H 0 V 23.868933 h 13.928666 v 4.9724 c 3.095867,-3.737467 7.1,-5.601067 12.010933,-5.601067 3.5192,0 6.453067,0.808934 8.812533,2.415734 2.330667,1.614533 3.994267,3.416666 4.954134,5.398399 0.965066,1.994267 1.442666,5.4036 1.442666,10.25 v 74.986931" />
                <path
   id="path30"
   style="fill:#1b1819;fill-opacity:1;fill-rule:nonzero;stroke:none;stroke-width:0.133333"
   d="M 65.165598,14.368933 H 51.242665 V 0.75866679 h 13.922933 z m 0,101.922397 H 51.242665 V 23.868933 h 13.922933 v 92.422397 0" />
                <path
   id="path32"
   style="fill:#1b1819;fill-opacity:1;fill-rule:nonzero;stroke:none;stroke-width:0.133333"
   d="m 114.87293,96.153331 c 0,5.732269 -1.98173,10.637469 -5.9656,14.685999 -3.98387,4.05827 -8.8308,6.09107 -14.528666,6.09107 -5.709333,0 -10.617733,-2.01507 -14.755733,-6.05307 -4.147866,-4.0276 -6.212,-8.89227 -6.212,-14.592799 V 43.873599 c 0,-5.688 2.0224,-10.5552 6.0688,-14.5828 4.045334,-4.037999 8.9328,-6.050533 14.652,-6.050533 5.7396,0 10.617199,2.012534 14.662529,6.050533 4.04587,4.038 6.07867,8.9152 6.07867,14.626533 V 76.695465 H 100.9396 V 43.357999 c 0,-1.845867 -0.65734,-3.4396 -2.002669,-4.795333 -1.3348,-1.3552 -2.8952,-2.033333 -4.722933,-2.033333 -1.920267,0 -3.553067,0.678133 -4.8776,2.033333 -1.3452,1.355733 -2.002,2.949466 -2.002,4.795333 v 53.452665 c 0,1.845334 0.6568,3.439996 2.002,4.797866 1.324533,1.3552 2.957333,2.01973 4.8776,2.01973 1.827733,0 3.388133,-0.69573 4.722933,-2.07133 1.345329,-1.40667 2.002669,-3.041599 2.002669,-4.933866 v -5.333733 h 13.93333 v 4.864" />
        </g>
        </a>
</svg>
