<svg id="Camada_1" data-name="Camada 1" xmlns="http://www.w3.org/2000/svg" viewBox="0 0 50 90"><defs><style>.cls-1{fill:#fff;}.cls-1,.cls-2,.cls-3,.cls-4,.cls-5,.cls-6,.cls-7,.cls-8{fill-rule:evenodd;}.cls-2{fill:#231f20;}.cls-3{fill:#d09910;}.cls-4{fill:#a46e08;}.cls-5{fill:#005387;}.cls-6{fill:#e6e7e8;}.cls-7{fill:#bcbec0;}.cls-8{fill:#f58220;}</style></defs><title>Brasão e monograma - Arquivo Ai</title><path class="cls-1" d="M34.28,69.06l0,1.72a1.55,1.55,0,0,0-.56-.28c-.38-.06-.86,0-1.37-.08-.27.51-.18,1,.69,1.37A.92.92,0,0,1,33.56,73a1,1,0,0,0,0,.47,1,1,0,0,0,.79.44A1.4,1.4,0,0,0,37,74.1c.67,0,.93-.26.94-.7a1.64,1.64,0,0,1,0-.66.94.94,0,0,1,.45-.58,2.59,2.59,0,0,1,.45-.19.85.85,0,0,0,.59-1.23c-.25,0-1.17-.06-1.37,0a1.67,1.67,0,0,0-.58.22l0-1.12h0c3.51.65,6.55.29,8.43-1.55,2.7-3.19,3.12-8.38,3.23-9.17.3-2.13-2-3.39-4.58-4.19.2-1.34,2.2-3.9,2.89-5.41a11,11,0,0,0-6.78,1L43.81,22H40.89L41,19.86h.54a.62.62,0,0,0,.59-.57v-.61a5.31,5.31,0,0,0,.7-.12,1.07,1.07,0,0,0,.76-.61,4.52,4.52,0,0,0,0-1.64.87.87,0,0,0-.49-.68,2.62,2.62,0,0,0-1-.24v-.58c0-.06,0-.6-.83-.57H35.24a.65.65,0,0,0-.7.68v.45a4.43,4.43,0,0,0-1.09.22,1,1,0,0,0-.57.84,5.29,5.29,0,0,0,0,1.37,1,1,0,0,0,.82.76,3.87,3.87,0,0,0,.81.12v.62a.64.64,0,0,0,.6.56h.5l0,2.16H27.67l0-2.16h.43a.62.62,0,0,0,.59-.57v-.61a7,7,0,0,0,.79-.12,1.07,1.07,0,0,0,.75-.61,4.52,4.52,0,0,0,0-1.64.91.91,0,0,0-.5-.68,3.08,3.08,0,0,0-1.08-.24v-.58c0-.06-.06-.6-.84-.57H22.09c-.78,0-.84.51-.84.57v.58a3.08,3.08,0,0,0-1.08.24.91.91,0,0,0-.5.68,4.52,4.52,0,0,0,0,1.64,1.07,1.07,0,0,0,.75.61,7,7,0,0,0,.79.12v.61a.62.62,0,0,0,.59.57h.43l0,2.16H14.41l-.05-2.16h.5a.64.64,0,0,0,.6-.56v-.62a3.87,3.87,0,0,0,.81-.12,1,1,0,0,0,.82-.76,5.29,5.29,0,0,0,0-1.37,1,1,0,0,0-.57-.84,4.43,4.43,0,0,0-1.09-.22v-.45a.65.65,0,0,0-.7-.68H8.67c-.78,0-.83.51-.83.57v.58a2.62,2.62,0,0,0-1,.24.87.87,0,0,0-.49.68,4.52,4.52,0,0,0,0,1.64,1.07,1.07,0,0,0,.76.61,5.31,5.31,0,0,0,.7.12v.61a.62.62,0,0,0,.59.57H9L9.11,22H6.19L9.24,50.54a11,11,0,0,0-6.78-1C3.15,51,5.15,53.56,5.35,54.9,2.75,55.7.47,57,.77,59.09c.11.79.53,6,3.23,9.17,1.88,1.84,4.92,2.2,8.43,1.55h0l0,1.12a1.67,1.67,0,0,0-.58-.22c-.2,0-1.12,0-1.37,0A.85.85,0,0,0,11.15,72a2.59,2.59,0,0,1,.45.19.94.94,0,0,1,.45.58,1.64,1.64,0,0,1,0,.66c0,.44.27.68.94.7a1.4,1.4,0,0,0,2.66-.16,1,1,0,0,0,.79-.44,1,1,0,0,0,0-.47A.92.92,0,0,1,17,71.79c.87-.37,1-.86.69-1.37-.51,0-1,0-1.37.08a1.55,1.55,0,0,0-.56.28l0-1.72a45.66,45.66,0,0,1,7.58-.86l0,1.56c0-.08-.14-.23-.56-.32-.21,0-1.15,0-1.4,0a.8.8,0,0,0,.46,1.23,4.46,4.46,0,0,1,.46.22,1,1,0,0,1,.44.58,1.73,1.73,0,0,1,0,.66c0,.44.23.69.9.75a1.27,1.27,0,0,0,.24.48,1.42,1.42,0,0,0,1.07.47h.18a1.42,1.42,0,0,0,1.07-.47,1.27,1.27,0,0,0,.24-.48c.67-.06.92-.31.9-.75a1.73,1.73,0,0,1,0-.66,1,1,0,0,1,.44-.58,4.46,4.46,0,0,1,.46-.22.8.8,0,0,0,.46-1.23c-.25,0-1.19,0-1.4,0-.42.09-.52.24-.56.32l0-1.56a45.66,45.66,0,0,1,7.58.86Zm4.17-12a20.64,20.64,0,0,1,3.26,2.25,4.08,4.08,0,0,1,1.48,2.36,19.19,19.19,0,0,1-5-.24l.3-4.37Zm-26.9,0,.3,4.37a19.19,19.19,0,0,1-5,.24,4.08,4.08,0,0,1,1.48-2.36A20.64,20.64,0,0,1,11.55,57Zm3.87,1.43a20.3,20.3,0,0,0,6.24,1.58c-2.21.24-4.19.51-6.18.83l-.06-2.41Zm19.16,0-.06,2.41c-2-.32-4-.59-6.18-.83a20.3,20.3,0,0,0,6.24-1.58ZM43.73,1.56c-1.44.74-3.28.09-4.36,1.6-.68.86-.94,2.56-2,3-1.27.68-3.55,1.41-3.78,2.94a3.89,3.89,0,0,0,1.88,4.13c.1.09.39,0,.27-.29A3.34,3.34,0,0,1,36,10.31a3.34,3.34,0,0,0,1,2.47.21.21,0,0,0,.27,0,.23.23,0,0,0,.08-.24,5.12,5.12,0,0,1,1.5-4.16,5.37,5.37,0,0,0,.46,4.31.21.21,0,0,0,.4,0,1.48,1.48,0,0,0,0-.23A3.4,3.4,0,0,1,41,10.11a3.55,3.55,0,0,0-.08,3,.37.37,0,0,0,.16.18s.23,0,.35-.06a1.64,1.64,0,0,0,1.25-1.29,5.93,5.93,0,0,1,1-2.54c.87-1.64.27-2.74,0-4.36a.21.21,0,0,0-.41,0c0,.17-.44,2.24-2.25,2.56a3.89,3.89,0,0,0,1-2.13c.32-1.5,1.21-2.33,2-3.53.33-.4,0-.6-.28-.38Zm-27,0c-1.43.74-3.28.09-4.35,1.6-.69.86-1,2.56-2,3-1.28.68-3.55,1.41-3.78,2.94a3.87,3.87,0,0,0,1.88,4.13c.1.09.38,0,.26-.29A3.42,3.42,0,0,1,9,10.31a3.35,3.35,0,0,0,1,2.47.2.2,0,0,0,.26,0,.21.21,0,0,0,.08-.24,5.13,5.13,0,0,1,1.51-4.16,5.33,5.33,0,0,0,.46,4.31.21.21,0,0,0,.39,0s0-.15,0-.23A3.37,3.37,0,0,1,14,10.11a3.58,3.58,0,0,0-.09,3c.05.06.05.12.17.18s.23,0,.35-.06a1.63,1.63,0,0,0,1.24-1.29,6.1,6.1,0,0,1,1-2.54c.86-1.64.27-2.74,0-4.36,0-.2-.32-.28-.4,0S15.82,7.28,14,7.6a4,4,0,0,0,1-2.13c.32-1.5,1.2-2.33,2-3.53.32-.4,0-.6-.29-.38Zm13.33,0c-1.43.74-3.28.09-4.35,1.6-.69.86-.95,2.56-2,3C22.47,6.88,20.2,7.61,20,9.14a3.89,3.89,0,0,0,1.89,4.13c.1.09.38,0,.26-.29a3.42,3.42,0,0,1,.21-2.67,3.31,3.31,0,0,0,1,2.47.2.2,0,0,0,.26,0,.21.21,0,0,0,.08-.24,5.13,5.13,0,0,1,1.51-4.16,5.29,5.29,0,0,0,.46,4.31.21.21,0,0,0,.39,0s0-.15,0-.23a3.33,3.33,0,0,1,1.32-2.35,3.58,3.58,0,0,0-.09,3c.05.06.05.12.17.18s.23,0,.35-.06A1.63,1.63,0,0,0,29,11.94,5.84,5.84,0,0,1,30,9.4c.86-1.64.27-2.74,0-4.36,0-.2-.32-.28-.4,0s-.45,2.24-2.26,2.56a4,4,0,0,0,1.05-2.13c.31-1.5,1.2-2.33,2-3.53C30.68,1.54,30.32,1.34,30.07,1.56Z"/><path class="cls-2" d="M16.76,23.49c0-.15.19-.2.35,0a2.51,2.51,0,0,1,.8,1.21c.12.52-.08,1.14-.87,2.55a4.64,4.64,0,0,0-.44,1.34,6.29,6.29,0,0,1,1.26-1.3,2.13,2.13,0,0,0,.5-.82c.05-.3.23-.39.43-.11a2.39,2.39,0,0,1,.67,2.49c-.46,1.28-.87,2-.64,2.77.07.21,0,.33-.25.27a2,2,0,0,1-1.38-1.5,1.67,1.67,0,0,0,.21,1.78c.15.17.05.37-.17.3a2.45,2.45,0,0,1-1.85-1.53,2.25,2.25,0,0,0,.87,2.1c.28.22.14.41-.17.39a3,3,0,0,1-1.93-.67,2,2,0,0,0,1.21,1.39l.12.06c.1.06.13.23-.12.32a4.34,4.34,0,0,1-2.27,0,4.58,4.58,0,0,1-3.15-2.61,2.63,2.63,0,0,1,.68-3.11,5.12,5.12,0,0,1,1.8-.65,2.34,2.34,0,0,0,1.43-1.42A3.76,3.76,0,0,1,15.31,25a7.14,7.14,0,0,0,.93-.61,1.86,1.86,0,0,0,.52-.88Zm3.88,8.23c-.49-.63-1-.51-1.55,0l-1.76,1.6h0l-1.75,1.61c-.54.47-.7,1-.12,1.53-.45.52-.62.86-.31,1.32a5.76,5.76,0,0,0,.76.81c.29.21.65.25,1.29-.24a.89.89,0,0,0,1.41,0l3.24,2.86a21.83,21.83,0,0,0-2.92-.75,7.3,7.3,0,0,0-4,.4c-1.76.79-2.9,1.74-3.19,2.77a4.39,4.39,0,0,0,2,4.72,26.36,26.36,0,0,0,2.72,1.55,8.65,8.65,0,0,1,3.21,2.57c.21.32.37.05.44-.1a4.36,4.36,0,0,0,.12-2.53,2.24,2.24,0,0,0-.52-1.09c-.25-.3-.51-.43-.64-.77a2.34,2.34,0,0,1-.16-1.5c.33-1.3,1.44-1.51,2.55-1.36a12.32,12.32,0,0,1,4.41,2l.43,2c0,.16.07.15.19.19l1.89.59a3.23,3.23,0,0,1,.55.94,1.66,1.66,0,0,1,0,1c-.27.57-1.59.59-2.12.71a3.78,3.78,0,0,0-.6.17,1.19,1.19,0,0,0-.74.77,2.09,2.09,0,0,0,.15,1.26.17.17,0,0,0,.3.06,1.22,1.22,0,0,1,.74-.65,2.13,2.13,0,0,1,1.26.11,7.89,7.89,0,0,0,2.55.86,1.65,1.65,0,0,0,1.09-.37,1.69,1.69,0,0,0,.59-.91,5,5,0,0,0,2.18.71c.71.09,1.49.18,2.21.21.15,0,.21,0,.25,0h0s0-.09,0-.24c0-.73,0-1.51,0-2.22a5.23,5.23,0,0,0-.5-2.25A1.73,1.73,0,0,0,37.8,48.4a8,8,0,0,0-.63-2.62,2.09,2.09,0,0,1,0-1.26,1.24,1.24,0,0,1,.72-.68.16.16,0,0,0,0-.3,2.09,2.09,0,0,0-1.23-.27,1.18,1.18,0,0,0-.83.67,2.92,2.92,0,0,0-.23.58c-.17.51-.39,1.86-.92,2a1.74,1.74,0,0,1-1.09-.07,1.83,1.83,0,0,1-.81-.62l-.41-1.95c0-.13,0-.16-.17-.2l-1.92-.61a12.25,12.25,0,0,1-1.59-4.58c0-1.12.27-2.2,1.59-2.42a2.34,2.34,0,0,1,1.48.3c.33.16.43.43.7.71a2.26,2.26,0,0,0,1,.62,4.32,4.32,0,0,0,2.54.11c.15-.05.43-.19.13-.42A8.9,8.9,0,0,1,33.87,34a26.83,26.83,0,0,0-1.29-2.85,4.39,4.39,0,0,0-4.52-2.44c-1,.2-2.1,1.25-3,2.93a7.33,7.33,0,0,0-.76,3.91,22.12,22.12,0,0,0,.47,3L22.18,35a.9.9,0,0,0,.18-1.4c.54-.59.54-1,.35-1.27a5.84,5.84,0,0,0-.73-.82C21.54,31.19,21.19,31.32,20.64,31.72Z"/><path class="cls-3" d="M41.53,14.83H35.18s-.08,0-.08,0v.5c2-.06,4.32-.06,6.51,0v-.48s0-.05-.08-.05ZM34.84,69.2l0,1a1.63,1.63,0,0,1,.58-.44,3.84,3.84,0,0,1,.51-.19H36a3.44,3.44,0,0,1,.51.25,1.71,1.71,0,0,1,.47.42l0-.54-2.19-.48Zm-11-1,1.14,0h0l1.13.06,0,.87A2.26,2.26,0,0,0,25,68.45a2.17,2.17,0,0,0-1.12.68l0-.91Zm-8.65,1,0,.87a2,2,0,0,0-.57-.35,4.12,4.12,0,0,0-.53-.18H14a3.44,3.44,0,0,0-.51.25,1.71,1.71,0,0,0-.47.42l0-.54,2.19-.48Zm2.27,1.48-.4,0-.35,0a1.92,1.92,0,0,0-.54.1l-.3.17a5,5,0,0,1-.39.59,2.05,2.05,0,0,1-.51.51l-.23-.18a7.11,7.11,0,0,0,.41-1.39,1.07,1.07,0,0,0-.51-.44,2.43,2.43,0,0,0-.57-.23h0a2,2,0,0,0-.56.32,1.37,1.37,0,0,0-.39.51A6.22,6.22,0,0,0,13.65,72l-.21.22a2.56,2.56,0,0,1-.57-.46,6,6,0,0,1-.45-.53l-.31-.14a1.8,1.8,0,0,0-.56,0l-.35,0-.39,0c-.08.38.41.64.5.65a1.75,1.75,0,0,1,.7.34,1.33,1.33,0,0,1,.41,1.3c0,.14,0,.29.24.38a.86.86,0,0,0,.3.06,1.16,1.16,0,0,1,.24-.68,1.45,1.45,0,0,1,1-.53h0a1.4,1.4,0,0,1,1.09.41,1.1,1.1,0,0,1,.3.64,1.06,1.06,0,0,0,.31-.09c.24-.12.2-.27.19-.41a1.31,1.31,0,0,1,.26-1.33,1.7,1.7,0,0,1,.65-.43c.09,0,.55-.33.43-.71Zm4.12-1c-.1.38.46.68.55.7a1.36,1.36,0,0,1,.6.39A1.15,1.15,0,0,1,23.07,72c0,.14,0,.29.21.4a1.19,1.19,0,0,0,.32.07,1.41,1.41,0,0,1,.34-.63,1.55,1.55,0,0,1,1.13-.4h0a1.43,1.43,0,0,1,1.08.47,1,1,0,0,1,.27.61,2,2,0,0,0,.32-.07c.24-.11.21-.21.21-.35a1.36,1.36,0,0,1,.33-1.32,1.71,1.71,0,0,1,.68-.38c.09,0,.57-.3.47-.68h-.75a1.56,1.56,0,0,0-.55.07c-.12,0-.24.12-.3.15a6.34,6.34,0,0,1-.43.56,2,2,0,0,1-.54.49l-.21-.2a6.34,6.34,0,0,0,.43-1.22,1,1,0,0,0-.45-.55,2.49,2.49,0,0,0-.63-.26h0a2.09,2.09,0,0,0-.62.3,1.55,1.55,0,0,0-.43.49,5.59,5.59,0,0,0,.42,1.23l-.22.21a2.3,2.3,0,0,1-.49-.46l-.38-.47c-.06,0-.14-.17-.25-.23a1.57,1.57,0,0,0-.53-.11h-.35c-.25,0-.54,0-.56,0Zm10.93,1,.4,0,.34,0a2,2,0,0,1,.55.1l.3.17a5,5,0,0,0,.39.59,2.05,2.05,0,0,0,.51.51l.23-.18a7.11,7.11,0,0,1-.41-1.39,1.07,1.07,0,0,1,.51-.44,2.43,2.43,0,0,1,.57-.23h0a2.34,2.34,0,0,1,.56.32,1.37,1.37,0,0,1,.39.51A6.22,6.22,0,0,1,36.34,72l.21.22a2.32,2.32,0,0,0,.56-.46,4.73,4.73,0,0,0,.46-.53l.31-.14a1.8,1.8,0,0,1,.56,0l.35,0,.39,0c.08.38-.41.64-.5.65a1.75,1.75,0,0,0-.7.34,1.33,1.33,0,0,0-.41,1.3c0,.14,0,.29-.24.38a.86.86,0,0,1-.3.06,1.11,1.11,0,0,0-.25-.68,1.41,1.41,0,0,0-1-.53h0a1.4,1.4,0,0,0-1.09.41,1,1,0,0,0-.3.64,1.06,1.06,0,0,1-.31-.09c-.24-.12-.2-.27-.19-.41a1.31,1.31,0,0,0-.26-1.33,1.7,1.7,0,0,0-.65-.43c-.09,0-.55-.33-.43-.71Zm3.15,4a.9.9,0,1,0-1-1,1,1,0,0,0,1,1ZM25,73.51a.92.92,0,1,1,1.11-.9,1,1,0,0,1-1.11.9ZM14.35,74.7a.91.91,0,1,1,1-1,1,1,0,0,1-1,1Zm-2-18.23-.25.21.32,4.67L14.94,61l-.07-2.8a12.72,12.72,0,0,1-2.24-1.44,3.85,3.85,0,0,1-.3-.27Zm25.35,0,.3.23-.35,4.61L35.09,61l.07-2.79a11.6,11.6,0,0,0,2.52-1.67ZM40.5,19.87H36.22L36.16,22h4.19l.15-2.17Zm-17.61,0H27.2L27.15,22H22.94l-.05-2.17Zm-13.39,0h4.28L13.84,22H9.65L9.5,19.85Zm-.92-.58h6.34s.08,0,.08,0v-.5c-2,.05-4.32.06-6.51,0v.48s0,.05.09.05Zm13.22,0h6.35s.08,0,.08,0v-.5c-2,.05-4.33.06-6.51,0v.48s0,.05.08.05Zm19.74,0H35.19s-.08,0-.07-.05v-.49c2,.05,4.32.05,6.5,0v.48s0,.05-.08.06ZM40,15.88H36.48a13.13,13.13,0,0,0-2.6.19c-.43.1-.41.41-.42.61a6.15,6.15,0,0,0,0,.86c0,.36.19.46.66.56a22,22,0,0,0,2.34.11H40a19.48,19.48,0,0,0,2.46-.11c.62-.12.66-.22.7-.55s0-.63,0-.95-.14-.5-.6-.59A18.58,18.58,0,0,0,40,15.88Zm-16.59,0h3.46a13.9,13.9,0,0,1,2.61.18c.42.1.41.41.42.61s0,.54,0,.86-.2.47-.66.56-1.71.11-2.34.12H23.29a19.52,19.52,0,0,1-2.46-.12c-.62-.12-.66-.21-.71-.54v-1c0-.35.14-.5.61-.58a17.2,17.2,0,0,1,2.63-.13Zm-13.3,0h3.46a13.9,13.9,0,0,1,2.61.18c.43.1.41.41.42.61a8.16,8.16,0,0,1,0,.86c0,.36-.19.47-.66.56s-1.71.11-2.34.12H10a19.6,19.6,0,0,1-2.46-.12c-.62-.12-.66-.21-.7-.54s0-.64,0-1,.14-.5.6-.58a17.2,17.2,0,0,1,2.63-.13ZM8.58,14.81h6.34s.08,0,.08,0v.49c-2,0-4.32,0-6.51,0v-.48s0,0,.09,0Zm13.24,0h6.35s.08,0,.07,0v.49c-2,0-4.32,0-6.5,0v-.48S21.77,14.81,21.82,14.81Z"/><path class="cls-4" d="M40,20.2H39.3L39.23,22H40L40,20.2ZM37.4,56.74c-.14.1-.27.22-.42.32l-.18,4.16.4.06.2-4.54Zm-24.77,0c.14.1.26.22.42.33l.18,4.16-.4.06-.2-4.55Zm.81.6.41.27L14,61.12l-.4.06-.16-3.84Zm.72.46.42.23.13,3-.41.06-.14-3.27Zm21.7,0-.41.23-.13,3,.4.06.14-3.27Zm.73-.45c-.14.1-.27.17-.41.26L36,61.11l.41,0,.16-3.82ZM10,20.18h.74L10.8,22h-.73L10,20.18Zm1.35,0h.73L12.15,22h-.74l-.06-1.84Zm1.34,0h.73L13.49,22h-.73l-.07-1.84Zm10.65,0h.73V22h-.73V20.18Zm1.28,0h.73V22h-.73V20.18Zm1.34,0h.73V22H26V20.18Zm11.39,0h-.73L36.55,22h.73l.07-1.84Zm1.34,0H38L37.89,22h.73Z"/><path class="cls-5" d="M46.75,49.87a10,10,0,0,0-3.25.24,14.12,14.12,0,0,0-2.8,1l-.18,1.65a2.74,2.74,0,0,1-.22.48,28.48,28.48,0,0,0,3.84,1.48,8.49,8.49,0,0,1,.83-2c.56-1,1.27-2,1.78-2.9Zm-30-26.38c0-.15.19-.2.35,0a2.51,2.51,0,0,1,.8,1.21c.12.52-.08,1.14-.87,2.55a4.64,4.64,0,0,0-.44,1.34,6.29,6.29,0,0,1,1.26-1.3,2.13,2.13,0,0,0,.5-.82c.05-.3.23-.39.43-.11a2.39,2.39,0,0,1,.67,2.49c-.46,1.28-.87,2-.64,2.77.07.21,0,.33-.25.27a2,2,0,0,1-1.38-1.5,1.67,1.67,0,0,0,.21,1.78c.15.17.05.37-.17.3a2.45,2.45,0,0,1-1.85-1.53,2.25,2.25,0,0,0,.87,2.1c.28.22.14.41-.17.39a3,3,0,0,1-1.93-.67,2,2,0,0,0,1.21,1.39l.12.06c.1.06.13.23-.12.32a4.34,4.34,0,0,1-2.27,0,4.58,4.58,0,0,1-3.15-2.61,2.63,2.63,0,0,1,.68-3.11,5.12,5.12,0,0,1,1.8-.65,2.34,2.34,0,0,0,1.43-1.42A3.76,3.76,0,0,1,15.31,25a7.14,7.14,0,0,0,.93-.61,1.86,1.86,0,0,0,.52-.88Zm3.88,8.23c-.49-.63-1-.51-1.55,0l-1.76,1.6h0l-1.75,1.61c-.54.47-.7,1-.12,1.53-.45.52-.62.86-.31,1.32a5.76,5.76,0,0,0,.76.81c.29.21.65.25,1.29-.24a.89.89,0,0,0,1.41,0l3.24,2.86a21.83,21.83,0,0,0-2.92-.75,7.3,7.3,0,0,0-4,.4c-1.76.79-2.9,1.74-3.19,2.77a4.39,4.39,0,0,0,2,4.72,26.36,26.36,0,0,0,2.72,1.55,8.65,8.65,0,0,1,3.21,2.57c.21.32.37.05.44-.1a4.36,4.36,0,0,0,.12-2.53,2.24,2.24,0,0,0-.52-1.09c-.25-.3-.51-.43-.64-.77a2.28,2.28,0,0,1-.16-1.5c.33-1.3,1.44-1.51,2.55-1.36a12.32,12.32,0,0,1,4.41,2l.43,2c0,.16.07.15.19.19l1.89.59a3.23,3.23,0,0,1,.55.94,1.66,1.66,0,0,1,0,1c-.27.57-1.59.59-2.12.71a3.78,3.78,0,0,0-.6.17,1.19,1.19,0,0,0-.74.77,2.09,2.09,0,0,0,.15,1.26.17.17,0,0,0,.3.06,1.22,1.22,0,0,1,.74-.65,2.13,2.13,0,0,1,1.26.11,7.89,7.89,0,0,0,2.55.86,1.65,1.65,0,0,0,1.09-.37,1.69,1.69,0,0,0,.59-.91,5,5,0,0,0,2.18.71c.71.09,1.49.18,2.21.21.15,0,.21,0,.25,0h0s0-.09,0-.24c0-.73,0-1.51,0-2.22a5.23,5.23,0,0,0-.5-2.25A1.73,1.73,0,0,0,37.8,48.4a8,8,0,0,0-.63-2.62,2.09,2.09,0,0,1,0-1.26,1.24,1.24,0,0,1,.72-.68.16.16,0,0,0,0-.3,2.09,2.09,0,0,0-1.23-.27,1.18,1.18,0,0,0-.83.67,2.92,2.92,0,0,0-.23.58c-.17.51-.39,1.86-.92,2a1.74,1.74,0,0,1-1.09-.07,1.83,1.83,0,0,1-.81-.62l-.41-1.95c0-.13,0-.16-.17-.2l-1.92-.61a12.25,12.25,0,0,1-1.59-4.58c0-1.12.27-2.2,1.59-2.42a2.34,2.34,0,0,1,1.48.3c.33.16.43.43.7.71a2.26,2.26,0,0,0,1,.62,4.32,4.32,0,0,0,2.54.11c.15-.05.43-.19.13-.42A8.82,8.82,0,0,1,33.87,34a26.83,26.83,0,0,0-1.29-2.85,4.39,4.39,0,0,0-4.52-2.44c-1,.2-2.1,1.25-3,2.93a7.33,7.33,0,0,0-.76,3.91,22.12,22.12,0,0,0,.47,3L22.18,35a.9.9,0,0,0,.18-1.4c.54-.59.54-1,.35-1.27a5.84,5.84,0,0,0-.73-.82c-.44-.35-.79-.22-1.34.18Zm3.8-9.15H43.16C42.1,32.59,41,42.47,40,52.5a10.77,10.77,0,0,1-4.61,4.8,17.88,17.88,0,0,1-6.4,2,30.41,30.41,0,0,1-3.32.23H24.44a30.41,30.41,0,0,1-3.32-.23,17.88,17.88,0,0,1-6.4-2,10.77,10.77,0,0,1-4.61-4.8C9.05,42.47,8,32.59,6.9,22.57ZM3.27,49.88c.51.91,1.19,1.9,1.78,2.87a7.71,7.71,0,0,1,.85,2,28.26,28.26,0,0,0,3.79-1.46,4.25,4.25,0,0,1-.21-.5l-.17-1.58a12,12,0,0,0-2.89-1.09,9.16,9.16,0,0,0-3.15-.19ZM1.48,60.22a13.37,13.37,0,0,0,3.69,1.72A13,13,0,0,0,10,62.2c3.36-.37,4.62-.59,7.87-1.11A49.56,49.56,0,0,1,25,60.44a49.56,49.56,0,0,1,7.19.65c3.25.52,4.51.74,7.87,1.11a12.92,12.92,0,0,0,4.78-.26,13.43,13.43,0,0,0,3.7-1.72,28.26,28.26,0,0,1-1.72,5.66,10.45,10.45,0,0,1-1.18,1.86,5.82,5.82,0,0,1-2.8,1.5,11.93,11.93,0,0,1-5,.06c-1.2-.32-2.56-.55-4-.86a45.53,45.53,0,0,0-5.69-.68c-1-.06-2-.1-3-.11H25c-1,0-2,0-3,.11a45.53,45.53,0,0,0-5.69.68c-1.47.31-2.85.54-4.06.86a13.67,13.67,0,0,1-5.09-.06,4.84,4.84,0,0,1-2.71-1.46A11,11,0,0,1,3,65.54,26.83,26.83,0,0,1,1.48,60.22Z"/><path class="cls-6" d="M17,23.81c-.3.8-.82,1-1.77,1.66A4.21,4.21,0,0,0,14,27.16a2.35,2.35,0,0,1-1.65,1.29c-1.16.21-2.43.8-2.3,2.46.11,1.93,2.65,3.81,5,3.35a1.84,1.84,0,0,1-1.19-1.82c0-.24.21-.18.29-.07a2.67,2.67,0,0,0,1.79.75,2.3,2.3,0,0,1-.75-2.64c.11-.24.29-.12.32,0a2.28,2.28,0,0,0,.3.67,2.82,2.82,0,0,0,1.25,1A2.11,2.11,0,0,1,17,30c.15-.31.38-.17.37,0a2,2,0,0,0,1.12,1.58,4.87,4.87,0,0,1,.51-2.4,2.2,2.2,0,0,0-.41-2.58A3.43,3.43,0,0,1,17.47,28a3,3,0,0,0-.85,1.1c-.08.24-.38.19-.34,0a4.42,4.42,0,0,1,.43-1.9c.17-.34.35-.67.52-1A1.64,1.64,0,0,0,17,23.81ZM1.45,59.54a2.53,2.53,0,0,1,1.28-2.87A21.51,21.51,0,0,1,6.86,55,23,23,0,0,0,10,53.73a11.46,11.46,0,0,0,1.89,2.36c-1.16.74-2.37,1.53-3.64,2.48a4.58,4.58,0,0,0-2.07,3,11.42,11.42,0,0,1-4.74-2.07Zm47.1,0a2.34,2.34,0,0,0-1.26-2.78A21.37,21.37,0,0,0,43.17,55,25.1,25.1,0,0,1,40,53.78a10.87,10.87,0,0,1-1.85,2.36,36.56,36.56,0,0,1,3.61,2.41,5.16,5.16,0,0,1,2.16,3,11.65,11.65,0,0,0,4.68-2.08ZM30.62,48l-.64.59a6.32,6.32,0,0,1,1.22,2.76c.45,1.29.64,2.22,2.05,2.58a13.63,13.63,0,0,0,3.27.46h0v0A14.65,14.65,0,0,0,36.39,51c-.26-1.43-1.17-1.7-2.42-2.25a6.32,6.32,0,0,1-2.64-1.44l-.71.65Zm-4.38-1,3.9-3.53,1.69.52L26.6,48.69,26.24,47Zm.64-1c-1.58-1.51-2.93-2.82-4.5-4.34a15.53,15.53,0,0,0-5.27-1,6.63,6.63,0,0,0-3.5,1.32c-1.09.77-1.38,1.25-1.46,1.62a3.66,3.66,0,0,0,.28,2.73,3.72,3.72,0,0,0,.74,1C14.23,48.41,16,49.12,17.56,50c.39.27.79.52,1.17.81a7.65,7.65,0,0,1,1.21,1.26,3.76,3.76,0,0,0,.13-1.88,2.51,2.51,0,0,0-.63-1.45,2.2,2.2,0,0,1-.76-1.26,2.4,2.4,0,0,1,.51-2.16,2.71,2.71,0,0,1,2.48-.59,12.43,12.43,0,0,1,4.36,2l.17-.15.68-.63Zm-8-7.86c2.58,2.2,5.33,4.7,8.23,7.64l1.74-1.59c-2.43-2.84-4.72-5.82-6.92-8.84l-3.05,2.79Zm10.23,5.81.82-.72a12.87,12.87,0,0,1-1.63-4.54,2.67,2.67,0,0,1,.85-2.48,2.33,2.33,0,0,1,1.34-.46,2.79,2.79,0,0,1,1.22.28,2.12,2.12,0,0,1,.84.72,2.64,2.64,0,0,0,1.5.77,4,4,0,0,0,1.73.07,8.19,8.19,0,0,1-1.16-1.37c-.26-.4-.47-.82-.7-1.24-.76-1.63-1.26-3.42-2.28-4.56a3.75,3.75,0,0,0-.95-.82A3.56,3.56,0,0,0,28,29.05c-.38,0-.88.29-1.73,1.31A6.36,6.36,0,0,0,24.7,33.7a15.29,15.29,0,0,0,.47,5.37c1.38,1.69,2.54,3.13,3.94,4.82ZM17.19,35.13c1-.84,2.51-2.44,3.76-3.29.34-.21.55-.21.71-.08a4.42,4.42,0,0,1,.77.85c.07.16,0,.24-.09.49a12.24,12.24,0,0,1-.95,1c-.83.8-1.87,1.76-2.82,2.6a16,16,0,0,1-1.65,1.43c-.45.27-.58.31-.81.13a4.16,4.16,0,0,1-.62-.65c-.23-.23-.22-.45,0-.77A16.1,16.1,0,0,1,17.19,35.13Z"/><path class="cls-7" d="M28.74,49.71l1-.93a4.79,4.79,0,0,1,.93,1.89,6.66,6.66,0,0,0,1.22,2.88,1.36,1.36,0,0,1-1.07,1.16c-.59.15-1.14-.1-2.57-.69a1.9,1.9,0,0,0-2.44.33c-.22-.7-.09-1.14.48-1.37s1.38-.22,2.23-.5c.62-.23.74-.48.8-1.22a2.14,2.14,0,0,0-.59-1.55ZM22.19,34.63a6.74,6.74,0,0,1-.52.5c-.88.82-2.46,2.27-3.13,2.88a2.57,2.57,0,0,1-.33.25.55.55,0,0,1-.77-.15l.89-.74c.61-.56,1.55-1.4,2.8-2.59.31-.31.65-.61,1-1a1.77,1.77,0,0,1,.17.24.49.49,0,0,1-.08.56Zm-6.63.75a.44.44,0,0,0-.06.56,1.33,1.33,0,0,0,.19.24c.31-.35.66-.67,1-1,1.26-1.2,2.2-2,2.81-2.59l.87-.73c-.16-.17-.38-.41-.76-.18a3.55,3.55,0,0,0-.33.25c-.66.61-2.26,2.07-3.14,2.89-.25.24-.42.38-.54.52ZM32.42,45.9,32,44.18,26.85,49l1.68.52,3.89-3.58Zm-3.26-2,.8-.65a13.5,13.5,0,0,1-1.62-4.59,2.78,2.78,0,0,1,.81-2.44,2.41,2.41,0,0,1,2.19-.33,2.23,2.23,0,0,1,1.2.86,2.51,2.51,0,0,0,1.37.79,4,4,0,0,0,1.9.07l-.07-.07A3.46,3.46,0,0,1,34.37,37a6.28,6.28,0,0,1-1.14-.89c-.65-.7-1.29-1.48-1.91-2.26-.32-.37-.75-1-1.12-1.12a1.62,1.62,0,0,0-1.06,0c-.71.18-1.44.65-2,2.18A6.8,6.8,0,0,0,26.83,39a17.21,17.21,0,0,0,2.33,4.88ZM26.84,46a17.89,17.89,0,0,0-4.67-2.72,6.86,6.86,0,0,0-4.07,0c-1.57.48-2.1,1.16-2.34,1.86a1.65,1.65,0,0,0,0,1.06c.1.38.68.85,1,1.2.73.69,1.46,1.38,2.1,2.09a6,6,0,0,1,.8,1.21A3.27,3.27,0,0,1,19.89,52l.07.09a3.92,3.92,0,0,0,.13-1.89,2.76,2.76,0,0,0-.66-1.49,2.1,2.1,0,0,1-.75-1.22,2.41,2.41,0,0,1,.51-2.15,2.69,2.69,0,0,1,2.48-.6,12.49,12.49,0,0,1,4.37,2l.8-.75Zm5.73.21-1,.93a5.16,5.16,0,0,0,1.82,1.08,6.72,6.72,0,0,1,2.79,1.44,1.39,1.39,0,0,0,1.3-.92c.2-.57,0-1.17-.5-2.62-.37-1-.2-2,.52-2.41-.68-.27-1.14-.17-1.42.38s-.34,1.34-.69,2.16c-.3.57-.56.68-1.29.68A2.32,2.32,0,0,1,32.57,46.19Z"/><path class="cls-8" d="M43.41,2.14c-1.48.46-3.34.1-4.08,2a11,11,0,0,1-1,1.79,1.84,1.84,0,0,1-.72.62c-1.14.63-3.41,1.38-3.6,2.66a3.5,3.5,0,0,0,1.24,3.43A3.59,3.59,0,0,1,36,9.54c.18-.29.44-.12.43.07A3.79,3.79,0,0,0,36.88,12a5.8,5.8,0,0,1,2.31-4.45c.29-.15.4.13.3.27a10.06,10.06,0,0,0-.34,1,4.9,4.9,0,0,0,.22,3.13,4.12,4.12,0,0,1,2-2.58c.32-.2.44.15.3.32-.51,1-.91,2.43-.39,3.19,1.1-.26,1-1.16,1.22-2.13a6.51,6.51,0,0,1,1-2c.35-.94.14-1.5-.08-2.78a3.27,3.27,0,0,1-2.49,2c-.4.07-.7,0-.42-.39a6,6,0,0,0,1.12-2,7.59,7.59,0,0,1,1.79-3.48Zm-27,0c-1.48.46-3.34.1-4.08,2a11.77,11.77,0,0,1-1,1.79,2,2,0,0,1-.73.62c-1.13.63-3.4,1.38-3.59,2.66a3.48,3.48,0,0,0,1.24,3.43,3.58,3.58,0,0,1,.74-3.08c.19-.29.45-.12.43.07A3.87,3.87,0,0,0,9.9,12a5.77,5.77,0,0,1,2.31-4.45c.28-.15.39.13.3.27a7.9,7.9,0,0,0-.34,1,4.9,4.9,0,0,0,.21,3.13,4.19,4.19,0,0,1,2-2.58c.33-.2.45.15.3.32-.5,1-.9,2.43-.38,3.19,1.1-.26,1-1.16,1.21-2.13a6.66,6.66,0,0,1,1-2c.34-.94.13-1.5-.08-2.78a3.29,3.29,0,0,1-2.49,2c-.41.07-.7,0-.42-.39a5.82,5.82,0,0,0,1.11-2,7.61,7.61,0,0,1,1.8-3.48Zm13.33,0c-1.49.46-3.35.1-4.08,2a12.73,12.73,0,0,1-1,1.79,2,2,0,0,1-.73.62c-1.14.63-3.4,1.38-3.6,2.66a3.51,3.51,0,0,0,1.25,3.43,3.55,3.55,0,0,1,.74-3.08c.19-.29.45-.12.43.07A3.74,3.74,0,0,0,23.23,12a5.77,5.77,0,0,1,2.31-4.45c.28-.15.39.13.3.27a6.5,6.5,0,0,0-.34,1,4.83,4.83,0,0,0,.21,3.13,4.19,4.19,0,0,1,2-2.58c.33-.2.44.15.3.32-.5,1-.9,2.43-.38,3.19,1.1-.26,1-1.16,1.21-2.13a6.39,6.39,0,0,1,1-2c.34-.94.13-1.5-.08-2.78a3.31,3.31,0,0,1-2.5,2c-.4.07-.69,0-.41-.39a5.82,5.82,0,0,0,1.11-2A7.61,7.61,0,0,1,29.76,2.14Z"/><path class="cls-6" d="M5.88,63.22,6,64.68l-.13,0a3.08,3.08,0,0,0-.21-.7,1.45,1.45,0,0,0-.34-.46,1.07,1.07,0,0,0-.43-.25.32.32,0,0,0-.37.07.43.43,0,0,0-.12.37.73.73,0,0,0,.12.36,4.77,4.77,0,0,0,.75.79,8.21,8.21,0,0,1,.66.65,1.78,1.78,0,0,1,.28.45,1.6,1.6,0,0,1,.13.51.92.92,0,0,1-.23.73.68.68,0,0,1-.69.15,2.09,2.09,0,0,1-.3-.11L4.77,67a1.34,1.34,0,0,0-.28-.18s-.06,0-.08,0a.34.34,0,0,0,0,.18l-.13,0-.11-1.44.13,0a3,3,0,0,0,.22.71,1.48,1.48,0,0,0,.35.45A1.18,1.18,0,0,0,5.3,67a.43.43,0,0,0,.45-.06.5.5,0,0,0,.13-.41,1.06,1.06,0,0,0-.09-.31,1.57,1.57,0,0,0-.23-.34c-.06-.07-.24-.25-.54-.52a8.48,8.48,0,0,1-.62-.63,1.86,1.86,0,0,1-.3-.47,1.46,1.46,0,0,1-.12-.5.84.84,0,0,1,.24-.71.68.68,0,0,1,.66-.11,1.63,1.63,0,0,1,.56.32.72.72,0,0,0,.18.12s.06,0,.08,0,0-.09,0-.18l.13,0ZM22,62V63.4h-.13a1.84,1.84,0,0,0-.17-.64.82.82,0,0,0-.34-.35.72.72,0,0,0-.45-.09.54.54,0,0,0-.42.22.62.62,0,0,0-.17.43.55.55,0,0,0,.11.33,2.4,2.4,0,0,0,.74.51,5.18,5.18,0,0,1,.7.43,1.09,1.09,0,0,1,.38.83,1.2,1.2,0,0,1-.31.84,1.14,1.14,0,0,1-.79.41,1.4,1.4,0,0,1-.29,0l-.33-.08a1.41,1.41,0,0,0-.32-.07s-.06,0-.09,0a.8.8,0,0,0-.05.19l-.13,0V65h.13a2.12,2.12,0,0,0,.19.65.85.85,0,0,0,.33.32,1,1,0,0,0,.51.1.66.66,0,0,0,.49-.24.67.67,0,0,0,.18-.48.6.6,0,0,0-.08-.28.64.64,0,0,0-.21-.26L21,64.47a4.64,4.64,0,0,1-.65-.42,1.1,1.1,0,0,1-.29-.36,1,1,0,0,1-.1-.47,1.16,1.16,0,0,1,.28-.79,1,1,0,0,1,.74-.38,1.2,1.2,0,0,1,.6.11.57.57,0,0,0,.19.05.11.11,0,0,0,.1-.05.44.44,0,0,0,.07-.2ZM27,64.31l0,1.16a1,1,0,0,0,0,.47.33.33,0,0,0,.27.14h.16v.14l-1.48-.06H24.68V66A.44.44,0,0,0,25,66a.19.19,0,0,0,.07-.16,1.39,1.39,0,0,0-.11-.41l-.21-.56H23.39l-.23.63a1.35,1.35,0,0,0-.08.35.19.19,0,0,0,.07.15.59.59,0,0,0,.34.08v.15H22.35v-.14a.53.53,0,0,0,.29-.12,2.38,2.38,0,0,0,.28-.58L24.11,62h.12l1.26,3.39a1.62,1.62,0,0,0,.26.52.52.52,0,0,0,.34.13h0a.29.29,0,0,0,.23-.15.88.88,0,0,0,.06-.42l.08-2.64a.87.87,0,0,0-.05-.47.33.33,0,0,0-.27-.14H26v-.15l1.29.06a1.82,1.82,0,0,1,.74.15,1,1,0,0,1,.45.4,1.21,1.21,0,0,1,.18.66,1.13,1.13,0,0,1-.32.81,1,1,0,0,1-.81.28l-.28,0L27,64.31Zm3.06,2-.16,0-.1,0a.27.27,0,0,1-.1-.06.26.26,0,0,1-.09-.12,2,2,0,0,1,0-.41L29.83,63a1.06,1.06,0,0,1,.1-.44.32.32,0,0,1,.3-.12l.15,0,0-.17-1.53-.13,0,.17H29a.35.35,0,0,1,.21.1.25.25,0,0,1,.08.12,1.88,1.88,0,0,1,0,.4L29,65.6a.94.94,0,0,1-.1.45.29.29,0,0,1-.3.11h-.15v.17l1.52.13,0-.17Zm1.84-3.52-.17,1.56.73.14a.55.55,0,0,0,.4,0A.77.77,0,0,0,33,64l.13,0L33,65.45l-.13,0c0-.2,0-.34,0-.4a.34.34,0,0,0-.13-.18.6.6,0,0,0-.3-.12l-.74-.14L31.5,66a2.72,2.72,0,0,0,0,.32.21.21,0,0,0,.06.1.39.39,0,0,0,.19.07l.57.11a1.33,1.33,0,0,0,.43,0c.09,0,.18-.16.27-.23a2.23,2.23,0,0,0,.38-.5l.14,0-.42,1-2.69-.41v-.15l.16,0a.43.43,0,0,0,.2,0,.2.2,0,0,0,.13-.12,1.31,1.31,0,0,0,.07-.37l.29-2.74a.92.92,0,0,0,0-.47.4.4,0,0,0-.28-.17l-.14,0,0-.15,2.69.51-.06.93-.14,0a1.49,1.49,0,0,0-.07-.47.35.35,0,0,0-.17-.21.89.89,0,0,0-.34-.11l-.92-.18Zm8.44,5,0-.17h.14a.39.39,0,0,0,.32-.16,1.44,1.44,0,0,0,.11-.48l.3-2.76a2.07,2.07,0,0,0,0-.42.18.18,0,0,0-.08-.12.4.4,0,0,0-.22-.06h-.15l0-.16,1.55-.1,0,.17h-.14a.38.38,0,0,0-.31.16,1.12,1.12,0,0,0-.12.48L41.42,67a1.44,1.44,0,0,0,0,.41.16.16,0,0,0,.08.12.35.35,0,0,0,.22.06h.13a.45.45,0,0,0,.32-.15,1.62,1.62,0,0,0,.25-.51l.86-3.43h0l0-.18,1.92-.57.17.91-.12,0a2.41,2.41,0,0,0-.15-.43.34.34,0,0,0-.16-.13.59.59,0,0,0-.26,0l-.67.2.23,1.57.53-.16c.15,0,.23-.1.26-.19a1.09,1.09,0,0,0,0-.51l.11,0,.21,1.44-.11,0a2.14,2.14,0,0,0-.12-.38.19.19,0,0,0-.12-.11s-.12,0-.23,0l-.53.16.18,1.27a2,2,0,0,0,.06.31s0,0,.05.06.07,0,.14,0l.43-.12a1.11,1.11,0,0,0,.29-.14.51.51,0,0,0,.15-.23,2.27,2.27,0,0,0,.16-.63l.12,0-.07,1.12-2,.6,0-.16.11,0a.27.27,0,0,0,.14-.11.21.21,0,0,0,.06-.16,1.63,1.63,0,0,0,0-.39l-.18-1.22-.78.23-.4,1.42c0,.16-.08.27,0,.38s.2,0,.37,0v.14a11.08,11.08,0,0,1-2.83.32ZM34,62.9l.9.11,1.58,3.23L36.69,64a.93.93,0,0,0,0-.47.29.29,0,0,0-.24-.14l-.14,0,0-.16,1.16.14,0,.16-.13,0a.3.3,0,0,0-.29.11A1.16,1.16,0,0,0,37,64l-.39,3.46-.12,0L34.73,64l-.27,2.43a1.29,1.29,0,0,0,0,.48.32.32,0,0,0,.24.15l.13,0,0,.15L33.66,67l0-.16.13,0a.25.25,0,0,0,.29-.1.71.71,0,0,0,.09-.41l.32-2.83a2.22,2.22,0,0,0-.17-.29,1,1,0,0,0-.19-.14.9.9,0,0,0-.22,0l0-.16Zm6.59.53-2.88-.1-.1,1h.14a1.09,1.09,0,0,1,.13-.46.5.5,0,0,1,.23-.21,1,1,0,0,1,.35,0l.4,0-.18,3.23a1.4,1.4,0,0,1-.08.46.35.35,0,0,1-.15.12.39.39,0,0,1-.16,0h-.14v.15l1.51,0v-.15h-.14a.29.29,0,0,1-.27-.13.83.83,0,0,1,0-.48l.18-3.24h.47a.61.61,0,0,1,.33.1.59.59,0,0,1,.19.26,1.53,1.53,0,0,1,.06.4h.13l0-1Zm3.08.11-.23.83-.18.82.64-.18L43.7,63.9a2,2,0,0,0-.07-.36Zm-19,1L24,63l-.56,1.58,1.14,0ZM27,64.1l.22.05.17,0a.56.56,0,0,0,.46-.21,1,1,0,0,0,.21-.61,1.29,1.29,0,0,0-.08-.49.78.78,0,0,0-.24-.34.69.69,0,0,0-.37-.13,1.45,1.45,0,0,0-.32,0L27,64.1Zm-9.15-1.42L18,64.13l-.13,0a2.05,2.05,0,0,0-.24-.62.81.81,0,0,0-.38-.31.79.79,0,0,0-.45,0,.6.6,0,0,0-.39.27.63.63,0,0,0-.12.45.51.51,0,0,0,.15.31,2.47,2.47,0,0,0,.81.45A4,4,0,0,1,18,65a1,1,0,0,1,.33.33,1.25,1.25,0,0,1,.15.46,1.31,1.31,0,0,1-.2.88,1.15,1.15,0,0,1-.74.49l-.29,0-.34,0a1.27,1.27,0,0,0-.31,0,.15.15,0,0,0-.09.06.53.53,0,0,0,0,.2l-.13,0L16.13,66l.12,0a2.26,2.26,0,0,0,.27.63.78.78,0,0,0,.37.29.85.85,0,0,0,.5,0,.68.68,0,0,0,.47-.3A.71.71,0,0,0,18,66.1a.75.75,0,0,0-.11-.28.76.76,0,0,0-.24-.23l-.58-.28a3.65,3.65,0,0,1-.69-.34,1.15,1.15,0,0,1-.33-.33,1.1,1.1,0,0,1-.16-.45,1.25,1.25,0,0,1,.19-.82,1,1,0,0,1,.68-.47,1.14,1.14,0,0,1,.6,0,.46.46,0,0,0,.21,0,.1.1,0,0,0,.09-.06.33.33,0,0,0,0-.2l.13,0Zm-3.89,1.08.93-.16a1.12,1.12,0,0,1,.36,0,.34.34,0,0,1,.19.14,2.06,2.06,0,0,1,.14.44l.13,0-.08-.92-2.71.44v.15l.16,0c.14,0,.23,0,.28.07s.07.19.08.45L13.54,67a1.85,1.85,0,0,1,0,.39.21.21,0,0,1-.09.15.43.43,0,0,1-.22.1l-.14,0v.15l2.71-.44L16,66.22l-.14,0a3,3,0,0,1-.31.62.6.6,0,0,1-.23.22,1.55,1.55,0,0,1-.42.12l-.58.09a.29.29,0,0,1-.19,0,.15.15,0,0,1-.07-.07,2.16,2.16,0,0,1,0-.32L14,65.58l.74-.12a.61.61,0,0,1,.31,0,.28.28,0,0,1,.15.13,1.47,1.47,0,0,1,.09.38l.13,0-.06-1.45-.14,0a.77.77,0,0,1-.12.52.64.64,0,0,1-.38.16l-.74.12-.07-1.57ZM9.65,68.28v-.16l.16,0a.35.35,0,0,0,.25-.2,1.2,1.2,0,0,0,0-.44l-.15-2.63a1,1,0,0,0-.08-.45.27.27,0,0,0-.27-.08l-.15,0v-.16L10.78,64a2.33,2.33,0,0,1,1.13.06,1.31,1.31,0,0,1,.65.61,2.4,2.4,0,0,1,.29,1.09,2.65,2.65,0,0,1-.34,1.5,1.88,1.88,0,0,1-1.39.85l-1.47.22Zm.95-.48a1.66,1.66,0,0,0,.5,0,1.21,1.21,0,0,0,.88-.63,2.3,2.3,0,0,0,.28-1.34,2,2,0,0,0-.43-1.27,1,1,0,0,0-.95-.34,1.8,1.8,0,0,0-.47.15l.19,3.43ZM7.27,64.17l.93.12a1,1,0,0,1,.37.09.64.64,0,0,1,.2.2,2,2,0,0,1,.15.47l.15,0L9,64.12,6.2,63.75v.16l.14,0a.45.45,0,0,1,.31.16,1,1,0,0,1,.1.47l.18,2.64a1.57,1.57,0,0,1,0,.39.16.16,0,0,1-.1.11.3.3,0,0,1-.21,0l-.15,0v.16l2.76.36.24-1-.15,0a1.74,1.74,0,0,1-.29.52.42.42,0,0,1-.24.15,1.2,1.2,0,0,1-.42,0l-.6-.08a.44.44,0,0,1-.18,0,.39.39,0,0,1-.08-.1s0-.14,0-.32L7.4,66l.75.1a.8.8,0,0,1,.32.11.35.35,0,0,1,.15.17,1.57,1.57,0,0,1,.1.4l.15,0-.11-1.47H8.62a.64.64,0,0,1-.1.47c-.06.06-.19.07-.39,0l-.75-.1Z"/><path class="cls-1" d="M6.36,77.93l.34,0h.37a2.62,2.62,0,0,0,.41,0l.35,0c0,1.38,0,2.61,0,3.69s0,1.81,0,2.18A10.53,10.53,0,0,0,8,86a3.26,3.26,0,0,0,.62,1.28,2.7,2.7,0,0,0,1.12.81,3.9,3.9,0,0,0,1.53.28,3.79,3.79,0,0,0,1.53-.29,2.8,2.8,0,0,0,1.13-.83,3.35,3.35,0,0,0,.61-1.39A16.07,16.07,0,0,0,14.67,83c0-.92,0-1.79,0-2.63s0-1.64-.05-2.42l.24,0h.26a1.37,1.37,0,0,0,.29,0l.24,0q0,1-.06,1.77c0,.54,0,.93,0,1.17v.41a40.62,40.62,0,0,1-.15,4.2,4.78,4.78,0,0,1-.52,1.76,3.69,3.69,0,0,1-1.54,1.44,5.45,5.45,0,0,1-2.39.48A4.66,4.66,0,0,1,7.46,88a5.28,5.28,0,0,1-1.1-3.7q0-.09,0-1.2c0-.74,0-1.45,0-2.12,0-.51,0-1.37-.06-2.61,0-.19,0-.34,0-.44Zm11.1,11c.05-.56.09-1.18.11-1.85s0-1.41,0-2.25c0-1.15,0-2.31,0-3.46s-.06-2.3-.1-3.46l.74,0h3.44l1.58,0c0,.06,0,.15,0,.27s0,.21,0,.27,0,.14,0,.25,0,.2,0,.26a10,10,0,0,0-1.44-.18c-.6,0-1.42-.07-2.45-.09H19c0,.3,0,.63,0,1s0,.83,0,1.46v1.62h1.28c.52,0,1,0,1.43,0s.87-.06,1.3-.11a1.09,1.09,0,0,1,0,.18c0,.07,0,.18,0,.31s0,.22,0,.28a.91.91,0,0,0,0,.17l-2.17-.1-1.38,0h-.46v3.71c0,.6,0,1,0,1.24A4.16,4.16,0,0,0,19,89l-.39,0h-.79l-.33,0Zm6.38-.65a6.7,6.7,0,0,0,.23-.85c.06-.29.1-.58.13-.86A3,3,0,0,0,25.25,88a2.77,2.77,0,0,0,1.61.5,2.25,2.25,0,0,0,1.68-.64,2.37,2.37,0,0,0,.63-1.73,1.94,1.94,0,0,0-.37-1.21,3,3,0,0,0-1.27-.82l-1.3-.55a4,4,0,0,1-1.63-1.11,2.49,2.49,0,0,1-.51-1.6A2.91,2.91,0,0,1,25,78.61a3.49,3.49,0,0,1,2.46-.87,5.16,5.16,0,0,1,1.25.15,5.29,5.29,0,0,1,1.2.44,6.14,6.14,0,0,0-.23.57,4.94,4.94,0,0,0-.22.68,2.81,2.81,0,0,0-1-.93,2.46,2.46,0,0,0-1.24-.32,1.88,1.88,0,0,0-1.41.54,2,2,0,0,0-.53,1.46,1.71,1.71,0,0,0,.38,1.13A3.16,3.16,0,0,0,27,82.3l1.31.57A3.91,3.91,0,0,1,29.9,84a2.68,2.68,0,0,1,.49,1.66,3.26,3.26,0,0,1-1.05,2.53,4,4,0,0,1-2.79,1,4.73,4.73,0,0,1-1.48-.22,4,4,0,0,1-1.23-.64Zm7.47.65c.2-.89.42-2.18.68-3.87s.58-4.14,1-7.35h.27c.95,1.91,1.79,3.55,2.5,4.93s1.39,2.66,2,3.82q1.06-1.86,2.22-4t2.55-4.75h.22c.14,1.41.32,3,.51,4.73L44,89l-.37-.06a2.11,2.11,0,0,0-.35,0,2,2,0,0,0-.34,0l-.38.06c-.13-1.89-.28-3.55-.43-5s-.28-2.45-.41-3.07q-1.5,2.5-2.59,4.65a28.93,28.93,0,0,0-1.54,3.38h-.22a10.49,10.49,0,0,0-.53-1.4c-.24-.52-.57-1.17-1-2l-2.51-4.64c-.25,1.73-.44,3.29-.57,4.67s-.21,2.51-.22,3.36l-.31-.06a1.37,1.37,0,0,0-.29,0,1.46,1.46,0,0,0-.29,0Z"/></svg>